<svg version="1.1" viewBox="0.0 0.0 960.0 600.0" fill="none" stroke="none" stroke-linecap="square" stroke-miterlimit="10" xmlns:xlink="http://www.w3.org/1999/xlink" xmlns="http://www.w3.org/2000/svg"><clipPath id="p.0"><path d="m0 0l960.0 0l0 600.0l-960.0 0l0 -600.0z" clip-rule="nonzero"/></clipPath><g clip-path="url(#p.0)"><path fill="#000000" fill-opacity="0.0" d="m0 0l960.0 0l0 600.0l-960.0 0z" fill-rule="evenodd"/><path fill="#000000" fill-opacity="0.0" d="m52.299213 197.85826l855.4016 0l0 204.28346l-855.4016 0z" fill-rule="evenodd"/><path fill="#ffffff" d="m146.23671 310.73328l-0.140625 5.1875l-7.328125 0.265625q-1.609375 9.34375 -5.140625 15.078125q-3.53125 5.734375 -11.796875 12.390625q-8.265625 6.671875 -19.796875 11.140625q-11.53125 4.46875 -19.265625 4.46875q-7.734375 0 -11.734375 -3.140625q-4.0 -3.140625 -4.0 -8.203125q0 -7.734375 9.125 -15.53125q9.140625 -7.796875 22.140625 -13.0625q13.0 -5.265625 25.796875 -7.140625q-2.0 -3.328125 -6.0625 -5.453125q-4.0625 -2.140625 -13.796875 -4.8125q-5.34375 -1.46875 -5.34375 -4.796875q0 -2.0 1.671875 -3.65625q1.671875 -1.671875 5.59375 -4.0q3.9375 -2.34375 7.46875 -4.8125q3.53125 -2.46875 7.859375 -5.921875q4.34375 -3.46875 7.265625 -7.203125q2.9375 -3.734375 2.9375 -6.53125q0 -4.671875 -4.65625 -4.671875q-3.609375 0 -9.8125 3.40625q-6.1875 3.390625 -12.1875 8.734375l-5.734375 18.125q-6.0 19.0625 -13.265625 29.59375q-7.265625 10.53125 -13.796875 10.53125q-6.9375 0 -6.9375 -8.53125q0 -8.53125 8.265625 -21.796875q8.265625 -13.265625 22.9375 -27.265625q0 -0.125 0.734375 -2.453125q0.734375 -2.34375 1.390625 -4.75q2.265625 -7.1875 3.46875 -9.1875l6.53125 1.0625q0 2.53125 -1.0625 6.0q7.46875 -5.59375 15.796875 -9.79689q8.328125 -4.203125 12.265625 -4.203125q3.9375 0 6.328125 2.46875q2.40625 2.46875 2.40625 7.2031403q0 4.734375 -4.46875 10.875q-4.46875 6.125 -11.125 11.046875q-12.140625 9.078125 -20.671875 13.0625q13.875 2.140625 20.265625 5.671875q6.40625 3.53125 9.328125 10.609375l8.546875 0zm-64.8125 3.0625q9.34375 -15.0625 12.40625 -30.9375q-7.203125 7.875 -13.078125 18.015625q-5.859375 10.125 -5.859375 14.65625q0 2.796875 1.9375 2.796875q1.9375 0 4.59375 -4.53125zm30.9375 28.53125q6.53125 -4.40625 10.390625 -9.859375q3.875 -5.46875 3.875 -10.28125q0 -2.265625 -0.65625 -4.53125q-20.0 2.40625 -32.9375 10.46875q-12.9375 8.0625 -12.9375 15.40625q0 3.1875 2.53125 5.125q2.53125 1.9375 6.9375 1.9375q10.796875 0 22.796875 -8.265625zm76.53929 -54.671875q3.328125 0 5.453125 2.265625q2.140625 2.265625 2.140625 5.875q0 7.203125 -8.265625 15.203125l-3.203125 -2.546875q1.875 -4.125 1.875 -6.0q0 -3.59375 -4.0 -3.59375q-4.0 0 -7.609375 5.078125q-3.59375 5.0625 -8.46875 15.65625q-4.859375 10.59375 -7.390625 15.0l-7.609375 -3.328125q7.34375 -16.671875 8.40625 -19.609375q3.59375 -10.390625 3.59375 -26.390625l7.46875 -2.0q-0.390625 8.65625 -1.203125 13.390625q-0.796875 4.734375 -3.859375 15.40625q13.46875 -24.40625 22.671875 -24.40625zm67.19089 33.734375l3.0625 2.265625q-1.859375 4.0 -6.859375 7.609375q-5.0 3.59375 -9.140625 3.59375q-7.859375 0 -7.859375 -8.265625q0 -3.875 2.0 -9.203125l-4.9375 5.0625q-7.203125 7.34375 -12.46875 9.875q-5.265625 2.53125 -10.328125 2.53125q-5.0625 0 -7.671875 -2.859375q-2.59375 -2.875 -2.59375 -7.9375q0 -9.328125 7.1875 -18.46875q7.203125 -9.140625 18.40625 -14.859375q11.203125 -5.734375 22.40625 -5.875l0.265625 4.40625l-5.609375 1.203125q-12.125 2.65625 -21.390625 10.65625q-9.265625 8.0 -9.265625 15.9375q0 7.9375 6.390625 7.9375q6.0 0 14.796875 -8.40625q8.8125 -8.40625 14.671875 -19.734375l5.609375 3.328125q-8.265625 16.671875 -8.265625 21.203125q0 1.875 1.265625 3.140625q1.265625 1.265625 2.53125 1.265625q1.265625 0 1.65625 -0.125q0.40625 -0.140625 0.796875 -0.34375q0.40625 -0.203125 1.0 -0.59375q0.609375 -0.40625 1.078125 -0.796875q0.46875 -0.40625 1.53125 -1.203125q1.0625 -0.8125 1.734375 -1.34375zm80.530945 -85.062515l6.796875 2.40625l-1.859375 3.46875q-14.671875 27.32814 -24.9375 52.92189q-6.796875 16.796875 -6.796875 25.203125q0 2.125 1.0625 3.40625q1.0625 1.265625 3.390625 1.265625q2.34375 0 5.40625 -3.078125l2.40625 2.265625q-1.734375 3.875 -6.0 7.140625q-4.265625 3.265625 -8.265625 3.265625q-7.734375 0 -7.734375 -9.0625q0 -5.34375 2.9375 -16.40625q-15.734375 27.46875 -30.796875 27.46875q-5.203125 0 -8.28125 -3.203125q-3.0625 -3.203125 -3.0625 -8.671875q0 -8.65625 6.9375 -17.984375q6.9375 -9.34375 17.0625 -15.265625q10.140625 -5.9375 18.9375 -5.9375l0.390625 4.65625q-11.453125 1.46875 -21.390625 9.9375q-9.9375 8.46875 -9.9375 17.265625q0 3.734375 2.0 5.9375q2.0 2.203125 5.203125 2.203125q6.53125 0 17.0625 -14.0q3.875 -5.078125 8.875 -14.796875q5.0 -9.734375 8.0 -15.671875q3.0 -5.9375 5.859375 -11.59375q2.875 -5.671875 7.53125 -14.937515q4.671875 -9.265625 9.203125 -18.203125zm20.124207 85.73439l2.8125 2.265625q-4.53125 7.0625 -7.8125 10.203125q-3.265625 3.125 -7.265625 3.125q-4.0 0 -6.53125 -3.1875q-2.53125 -3.203125 -2.53125 -8.015625q0 -9.328125 12.265625 -40.1875q12.265625 -30.875015 25.203125 -54.32814l5.859375 3.1875q-13.0625 25.343765 -23.59375 50.343765q-10.53125 24.984375 -10.53125 35.921875q0 6.265625 4.671875 6.265625q3.734375 0 7.453125 -5.59375zm52.678833 -2.9375l3.0625 2.40625q-4.140625 5.734375 -11.34375 9.53125q-7.1875 3.796875 -14.0 3.796875q-6.796875 0 -10.9375 -4.0q-4.125 -4.0 -4.125 -10.53125q0 -12.265625 13.0 -24.125q13.0 -11.875 26.34375 -11.875q8.796875 0 8.796875 6.9375q0 7.1875 -9.265625 14.53125q-9.265625 7.328125 -26.078125 13.328125q1.203125 3.0625 3.734375 4.796875q2.546875 1.734375 5.203125 1.734375q5.734375 0 15.609375 -6.53125zm-25.203125 -4.0q10.796875 -3.734375 18.53125 -9.328125q7.734375 -5.609375 7.734375 -10.265625q0 -1.734375 -1.34375 -3.0625q-1.328125 -1.34375 -3.0625 -1.34375q-6.265625 0 -13.53125 7.8125q-7.265625 7.796875 -8.328125 16.1875zm93.454285 11.328125l0.40625 3.46875q-0.53125 0.40625 -12.40625 4.796875q-1.59375 8.8125 -4.0625 17.40625q-2.46875 8.59375 -4.9375 13.0625q-2.453125 4.46875 -5.796875 8.875q-6.65625 8.796875 -18.0 8.796875q-5.59375 0 -8.9375 -3.46875q-3.328125 -3.46875 -3.328125 -9.46875q0 -23.0625 38.671875 -37.0625l7.203125 -25.328125q-11.46875 17.1875 -20.671875 21.1875q-4.53125 2.140625 -9.53125 2.140625q-5.0 0 -8.0 -3.203125q-3.0 -3.203125 -3.0 -9.328125q0 -6.140625 4.203125 -17.140625q4.203125 -11.0 9.390625 -18.453125l6.53125 2.796875q-0.390625 0.390625 -3.734375 7.0625q-5.859375 12.140625 -5.859375 18.0q0 5.859375 2.265625 7.859375q2.265625 2.0 6.65625 2.0q4.40625 0 9.9375 -5.265625q5.546875 -5.265625 17.140625 -20.859375l4.796875 2.796875q-1.0625 4.40625 -4.734375 15.9375q-3.65625 11.53125 -5.0 17.65625l10.796875 -4.265625zm-19.1875 10.40625q-8.40625 3.859375 -14.8125 8.796875q-11.984375 9.0625 -11.984375 17.609375q0 3.1875 1.859375 5.1875q1.859375 2.0 4.671875 2.0q13.328125 0 20.265625 -33.59375zm183.05038 -84.656265l9.875 -1.34375q0.796875 3.609375 0.796875 7.8750153q0 10.65625 -5.0 24.265625q-5.0 13.59375 -12.078125 24.734375q-7.0625 11.125 -15.0625 18.796875q-8.0 7.65625 -13.453125 7.65625q-11.734375 0 -11.734375 -18.390625q0 -8.796875 6.265625 -36.53125q-15.46875 21.859375 -28.546875 38.328125q-13.0625 16.46875 -15.796875 16.46875q-2.71875 0 -4.921875 -2.125q-2.203125 -2.140625 -2.203125 -4.40625q0 -2.265625 0.796875 -4.53125q5.734375 -17.203125 7.53125 -32.265625q1.796875 -15.078125 1.796875 -27.0q0 -11.937515 -0.125 -14.73439l10.40625 0q0.796875 4.265625 0.796875 13.26564q0 9.0 -2.203125 25.0625q-2.203125 16.0625 -5.40625 29.796875q10.0 -12.796875 41.34375 -56.265625q3.59375 -5.2031403 5.796875 -6.8593903q2.203125 -1.671875 5.328125 -1.671875q3.140625 0 3.140625 3.0625q0 1.2031403 -3.34375 11.468765q-3.328125 10.265625 -6.40625 25.46875q-3.0625 15.203125 -3.0625 23.078125q0 7.859375 4.0 7.859375q2.8125 0 6.9375 -4.0q10.265625 -9.875 17.46875 -27.140625q7.203125 -17.265625 7.203125 -35.53125q0 -2.9375153 -0.140625 -4.3906403zm38.408447 35.45314q3.328125 0 5.453125 2.265625q2.140625 2.265625 2.140625 5.875q0 7.203125 -8.265625 15.203125l-3.203125 -2.546875q1.875 -4.125 1.875 -6.0q0 -3.59375 -4.0 -3.59375q-4.0 0 -7.609375 5.078125q-3.59375 5.0625 -8.46875 15.65625q-4.859375 10.59375 -7.390625 15.0l-7.609375 -3.328125q7.34375 -16.671875 8.40625 -19.609375q3.59375 -10.390625 3.59375 -26.390625l7.46875 -2.0q-0.390625 8.65625 -1.203125 13.390625q-0.796875 4.734375 -3.859375 15.40625q13.46875 -24.40625 22.671875 -24.40625zm37.190918 -9.328125q-7.46875 0 -7.46875 -6.0q0 -3.328125 1.859375 -5.59375q1.875 -2.265625 4.8125 -2.265625q2.9375 0 4.796875 1.734375q1.875 1.71875 1.875 4.53125q0 2.796875 -1.609375 5.203125q-1.59375 2.390625 -4.265625 2.390625zm-1.734375 39.328125l2.671875 2.265625q-3.203125 6.140625 -8.46875 10.46875q-5.265625 4.328125 -9.53125 4.328125q-7.46875 0 -7.46875 -10.390625q0 -12.9375 10.671875 -33.734375q2.390625 -4.53125 2.796875 -5.328125l5.734375 3.46875q-2.796875 5.0625 -6.875 16.125q-4.0625 11.0625 -4.0625 14.203125q0 3.125 1.328125 4.46875q1.34375 1.328125 3.203125 1.328125q3.609375 0 10.0 -7.203125zm67.73193 12.40625l0.140625 3.203125q-1.34375 0.796875 -12.140625 4.796875q-4.265625 25.46875 -12.53125 36.796875q-8.265625 11.328125 -20.265625 11.328125q-5.59375 0 -8.9375 -3.609375q-3.328125 -3.59375 -3.328125 -9.3125q0 -11.46875 10.53125 -21.40625q10.53125 -9.9375 28.140625 -15.671875q1.984375 -8.921875 7.1875 -25.1875q-8.921875 13.59375 -16.203125 18.390625q-7.265625 4.796875 -13.125 4.796875q-5.859375 0 -8.859375 -3.1875q-3.0 -3.203125 -3.0 -8.546875q0 -8.796875 7.328125 -17.921875q7.328125 -9.140625 18.453125 -14.9375q11.140625 -5.796875 21.546875 -5.796875l1.0625 4.671875q-14.796875 1.59375 -25.40625 10.390625q-10.59375 8.796875 -10.59375 16.9375q0 3.46875 2.125 5.734375q2.140625 2.265625 5.203125 2.265625q4.546875 0 13.734375 -9.59375q9.203125 -9.609375 12.9375 -16.40625l4.9375 2.796875q-7.34375 19.59375 -10.140625 33.0625l11.203125 -3.59375zm-19.203125 10.125q-11.59375 5.34375 -19.203125 12.796875q-7.59375 7.46875 -7.59375 13.609375q0 3.203125 1.859375 5.203125q1.875 2.0 4.671875 2.0q5.609375 0 11.0625 -7.875q5.46875 -7.859375 9.203125 -25.734375zm73.067505 -15.0625l3.0625 2.53125q-5.59375 9.34375 -14.53125 9.34375q-7.734375 0 -7.734375 -7.609375q0 -4.390625 3.796875 -14.0625q3.8125 -9.671875 3.8125 -12.734375q0 -3.859375 -4.9375 -3.859375q-4.9375 0 -13.40625 10.59375q-8.453125 10.59375 -14.1875 24.59375l-7.875 -2.796875q6.9375 -34.796875 36.265625 -93.187515l6.53125 2.125q-14.796875 29.593765 -21.1875 47.062515q-6.671875 18.140625 -10.0 30.0q10.265625 -16.9375 17.65625 -23.46875q7.40625 -6.53125 12.875 -6.53125q9.859375 0 9.859375 7.0625q0 4.40625 -4.9375 15.75q-4.921875 11.328125 -4.921875 15.0625q0 3.71875 3.59375 3.71875q1.859375 0 6.265625 -3.59375zm37.465454 -5.203125l2.9375 3.34375q-3.34375 5.1875 -8.078125 8.125q-4.71875 2.9375 -9.53125 2.9375q-4.796875 0 -7.59375 -2.734375q-2.796875 -2.734375 -2.796875 -7.53125q0 -11.203125 8.390625 -30.9375q-6.796875 1.0625 -13.59375 3.203125l-0.9375 -5.203125l-0.125 -0.125q6.65625 -2.8125 17.46875 -4.53125q1.0625 -2.0 4.796875 -9.734375q7.46875 -15.34375 10.65625 -19.875l5.734375 2.265625q-1.328125 2.9375 -4.671875 9.8125q-3.328125 6.859375 -7.453125 15.53125q6.0 -0.40625 9.46875 -0.40625q3.46875 0 5.328125 1.0625l0 5.734375q-1.859375 -0.390625 -5.40625 -0.390625q-3.53125 0 -12.59375 1.1875q-7.859375 17.609375 -7.859375 25.609375q0 3.0625 1.921875 5.0625q1.9375 2.0 5.203125 2.0q3.265625 0 8.734375 -4.40625z" fill-rule="nonzero"/></g></svg>